<svg xmlns="http://www.w3.org/2000/svg" viewBox="1204.468 5847.169 25.831 18.573">
  <defs>
    <style>
      .cls-1 {
        fill: #2c2c29;
      }
    </style>
  </defs>
  <g id="Group_76" data-name="Group 76" transform="translate(1204.468 5847.169)">
    <path id="Path_633" data-name="Path 633" class="cls-1" d="M27.445,18.321c.3-1.37.609-2.74.761-3.958l.913-4.11V9.8c-.761-1.066-1.37-2.131-2.131-3.2V7.664A5.7,5.7,0,0,1,22.422,13.3a5.528,5.528,0,0,1-6.7-5.024c-.152-2.588,0-5.328,0-7.916v-.3h2.74v7.46a2.668,2.668,0,0,0,4.11,2.436,2.743,2.743,0,0,0,1.37-2.436V-.1h2.74c.152,0,.3.3.3.457a23.991,23.991,0,0,0,2.436,5.328c.152.3.3.457.457.761.152-.3.152-.457.3-.609A5.6,5.6,0,0,1,34.6,1.879a5.883,5.883,0,0,1,2.131,11.57,6.99,6.99,0,0,1-4.567-.761c-.152-.152-.3-.152-.457-.3-.152,1.066-.457,2.131-.609,3.045-.152,1.066-.457,1.979-.609,3.045A21.44,21.44,0,0,0,27.445,18.321ZM38.559,7.512a3.112,3.112,0,0,0-2.131-2.892,2.767,2.767,0,0,0-3.2,1.37,9.241,9.241,0,0,0-.761,2.74.915.915,0,0,0,.152.609c.761.3,1.37.761,2.131,1.066A2.949,2.949,0,0,0,38.559,7.512Z" transform="translate(-15.656 0.1)"/>
  </g>
</svg>
