<svg xmlns="http://www.w3.org/2000/svg" xmlns:xlink="http://www.w3.org/1999/xlink" width="176.455" height="42.164" viewBox="0 0 176.455 42.164"><defs><style>.a{fill:url(#a);}.b{fill:url(#b);}.c{fill:none;}.d{fill:url(#c);}.e{fill:url(#d);}.f{fill:url(#e);}.g{fill:url(#f);}.h{fill:url(#g);}.i{fill:url(#h);}.j{fill:url(#i);}</style><linearGradient id="a" x1="0.151" y1="1.562" x2="1.195" y2="-0.278" gradientUnits="objectBoundingBox"><stop offset="0" stop-color="red"/><stop offset="1" stop-color="#fcee21"/></linearGradient><linearGradient id="b" x1="-5.087" y1="1.76" x2="3.462" y2="-0.168" xlink:href="#a"/><linearGradient id="c" x1="-38784.602" y1="6.275" x2="73007.242" y2="-10.371" xlink:href="#a"/><linearGradient id="d" x1="-4.348" y1="16.066" x2="2.972" y2="-7.062" xlink:href="#a"/><linearGradient id="e" x1="-39.084" y1="23.746" x2="16.959" y2="-9.168" xlink:href="#a"/><linearGradient id="f" x1="-0.643" y1="15.903" x2="3.81" y2="-44.078" xlink:href="#a"/><linearGradient id="g" x1="-14.862" y1="7.174" x2="35.436" y2="-14.211" xlink:href="#a"/><linearGradient id="h" x1="-17.118" y1="6.214" x2="37.862" y2="-11.545" xlink:href="#a"/><linearGradient id="i" x1="-0.994" y1="1.124" x2="2.776" y2="-0.069" xlink:href="#a"/></defs><g transform="translate(0 0)"><path d="M2024.622,5260.731a10.985,10.985,0,0,1,1.794-.145,8.914,8.914,0,0,1,5.891,2.035,12.9,12.9,0,0,1,2.291,2.509l2-1.817a14.855,14.855,0,0,0-2.8-2.873,12.079,12.079,0,0,0-7.417-2.4,13.657,13.657,0,0,0-1.76.113Z" transform="translate(-2009.626 -5249.305)"/><path d="M2027.592,5532.212v2.545h7.2a7.662,7.662,0,0,1-.982,3.454,8.44,8.44,0,0,1-7.417,4.073,10.028,10.028,0,0,1-1.721-.155v2.6a13.6,13.6,0,0,0,1.685.1,10.877,10.877,0,0,0,9.017-4.363,13.358,13.358,0,0,0,2.327-7.67v-.582Z" transform="translate(-2009.674 -5511.006)"/><path d="M2408.053,5259.272v24.6h-2.618v-24.6Z" transform="translate(-2373.118 -5250.481)"/><path d="M2565.231,5471.87a8.989,8.989,0,0,1-1.854,2.437,7.329,7.329,0,0,1-5.017,1.855c-3.636,0-7.454-2.292-7.454-7.889,0-4.51,2.764-8,7.308-8a6.748,6.748,0,0,1,5.708,2.762,10.13,10.13,0,0,1,1.418,5.672H2553.6a4.833,4.833,0,0,0,4.8,5.126,4.581,4.581,0,0,0,3.09-1.091,5.99,5.99,0,0,0,1.564-2.073Zm-2.581-5.345a4.517,4.517,0,0,0-4.436-3.927,4.586,4.586,0,0,0-4.436,3.927Z" transform="translate(-2511.972 -5442.338)"/><path d="M2956.157,5460.637h2.618v1.745a5.32,5.32,0,0,1,4.326-2.108,5.119,5.119,0,0,1,4.327,2.072,6.722,6.722,0,0,1,.874,4.036v9.345h-2.618v-9.271a4.445,4.445,0,0,0-.691-2.765,2.963,2.963,0,0,0-2.473-1.089,3.3,3.3,0,0,0-2.654,1.164,6.356,6.356,0,0,0-1.09,4.072v7.89h-2.618Z" transform="translate(-2898.79 -5442.338)"/><path d="M3323.567,5460.637h2.617v14.724a9.488,9.488,0,0,1-1.455,5.926,7.34,7.34,0,0,1-6.035,2.8,7.477,7.477,0,0,1-5.382-2.037,6.8,6.8,0,0,1-1.963-4.872h2.582a4.749,4.749,0,0,0,1.164,3.127,4.673,4.673,0,0,0,3.635,1.454,4.233,4.233,0,0,0,4-2.109,7.014,7.014,0,0,0,.836-3.854v-2.182a6.364,6.364,0,0,1-5.163,2.546,7.231,7.231,0,0,1-5.163-2.037,8.17,8.17,0,0,1-2.181-5.963,7.91,7.91,0,0,1,2.181-5.854,7.439,7.439,0,0,1,5.163-2.035,6.275,6.275,0,0,1,5.163,2.508Zm-8.291,3.381a5.744,5.744,0,0,0-1.527,4.145,5.816,5.816,0,0,0,1.709,4.436,4.568,4.568,0,0,0,3.237,1.237,4.463,4.463,0,0,0,3.308-1.273,6.116,6.116,0,0,0,1.708-4.363,5.969,5.969,0,0,0-1.6-4.255,4.838,4.838,0,0,0-3.417-1.345A4.676,4.676,0,0,0,3315.277,5464.018Z" transform="translate(-3237.55 -5442.338)"/><path d="M3743.993,5460.637h2.618v15.088h-2.618v-2.109a6.363,6.363,0,0,1-5.163,2.546c-3.818,0-7.345-2.691-7.345-8,0-5.2,3.491-7.889,7.345-7.889a6.244,6.244,0,0,1,5.163,2.508Zm-9.817,7.525c0,3.236,1.818,5.672,4.945,5.672,3.2,0,5.018-2.654,5.018-5.636,0-3.891-2.69-5.6-5.018-5.6C3736.539,5462.6,3734.175,5464.49,3734.175,5468.162Z" transform="translate(-3638.85 -5442.338)"/><path d="M4172.7,5460.637h2.618v1.636a4.193,4.193,0,0,1,3.417-2,5.545,5.545,0,0,1,2.328.617l-1.237,2.364a2.691,2.691,0,0,0-1.526-.509,2.535,2.535,0,0,0-2.109.944c-.437.583-.872,1.6-.872,4.072v7.964H4172.7Z" transform="translate(-4059.996 -5442.338)"/><path d="M4409.3,5460.637h2.617v1.636a4.2,4.2,0,0,1,3.418-2,5.539,5.539,0,0,1,2.328.617l-1.238,2.364a2.686,2.686,0,0,0-1.525-.509,2.54,2.54,0,0,0-2.111.944c-.435.583-.872,1.6-.872,4.072v7.964H4409.3Z" transform="translate(-4285.835 -5442.338)"/><path d="M4629.646,5481.936l-6.945-13.671h2.982l5.344,10.8,4.909-10.8h2.91l-11.09,23.453h-2.909Z" transform="translate(-4489.528 -5449.968)"/><path class="a" d="M4971.8,5252.835h-10.326l-2.908,6.835h-2.981l11.163-25.414,10.871,25.414h-2.982Zm-1.055-2.546-4.071-9.707-4.145,9.707Z" transform="translate(-4807.271 -5226.602)"/><path class="b" d="M5517.8,5259.835v24.253h-2.688v-24.253Z" transform="translate(-5341.347 -5251.019)"/><path class="c" d="M1746.155,5251.852a1,1,0,0,0-.862-1.176,6,6,0,0,1-1.224-.45,2.671,2.671,0,0,1-1.377-1.616.785.785,0,0,1,.355-.91.681.681,0,0,1,.851.044c.235.169.452.365.681.545a3.616,3.616,0,0,0,.83.557c.374.15.612.042.68-.346a4.359,4.359,0,0,0,.01-1.737,2.375,2.375,0,0,0-2.929-1.608,3.2,3.2,0,0,0-2.051,5.068,3.692,3.692,0,0,0,2.367,1.581c.54.111.75.357.742.768a.863.863,0,0,1-.823.862,2.23,2.23,0,0,1-1.118-.07,1.642,1.642,0,0,0-2.368,1c-.221.469-.475.619-.879.521a.761.761,0,0,1-.6-.887,2.653,2.653,0,0,1,.774-1.8,1.062,1.062,0,0,0,.325-1.114c-.226-.673-.477-1.34-.741-2-.146-.364-.393-.436-.681-.172a4.168,4.168,0,0,0-1.642,3.671,2.323,2.323,0,0,1-1.047,2.426,4.464,4.464,0,0,0-1.168,5.723,3.674,3.674,0,0,1,.5,2.532,4.734,4.734,0,0,0,2.551,4.605.6.6,0,0,0,.891-.253c.155-.262.276-.543.41-.817a2.255,2.255,0,0,1,3.076-1.242,2.215,2.215,0,0,0,2.373-.194.735.735,0,0,1,1.088.139.859.859,0,0,1-.032,1.189,2.8,2.8,0,0,1-.69.529c-.807.481-.852.606-.539,1.467.193.528.1.855-.3,1.037-.433.2-.75.069-1.051-.406a4.414,4.414,0,0,1-.423-1.232,1.145,1.145,0,0,0-1.486-.776.968.968,0,0,0-.661,1.312,2.972,2.972,0,0,0,.1.333,3.793,3.793,0,0,0,3.588,2.519c1.47.058,2.271-.515,2.411-1.976.064-.67.1-1.345.115-2.021v-2.5c-.021-.748-.385-1.067-1.131-1.16a3.855,3.855,0,0,1-1.718-.572.912.912,0,0,0-.914-.132c-1.382.675-3.048.731-4.192,1.938-.245.259-.744.152-1.038-.121a.593.593,0,0,1-.078-.855,1.533,1.533,0,0,0,.042-1.617c-.113-.219-.252-.425-.385-.634-.27-.417-.266-.743.019-1.023a.819.819,0,0,1,1.143-.084c.239.185.432.43.662.63a2.2,2.2,0,0,0,2.237.47,1.88,1.88,0,0,0,1.327-1.582,3.833,3.833,0,0,1,.131-.552.815.815,0,0,1,1.324-.429c.342.248.289.608.261.957-.118,1.456.021,1.639,1.461,1.9.531.093.777-.086.8-.629.021-.5,0-.991.005-1.487s.018-.961,0-1.441a1.713,1.713,0,0,0-2.073-1.829,3.4,3.4,0,0,0-2.9,2.083c-.154.343-.318.685-.495,1.017a.632.632,0,0,1-.915.307,12.056,12.056,0,0,1-1.143-.634,1.623,1.623,0,0,0-2.347.189.784.784,0,0,1-1.035.088.748.748,0,0,1-.2-1.22,4.591,4.591,0,0,1,.348-.389,1.4,1.4,0,0,0,.4-1.354.837.837,0,0,1,.594-1.1c.449-.141.684,0,.975.554a5.263,5.263,0,0,0,.345.606,1.485,1.485,0,0,0,2.338.24c.191-.177.356-.385.54-.57a4.289,4.289,0,0,1,3.951-1.47c.961.175,1.525.149,1.663-.955v-1.127A9.886,9.886,0,0,1,1746.155,5251.852Z" transform="translate(-1731.927 -5236.949)"/><path d="M2008.441,5682.026c0-.013,0-.024,0-.037v2.5C2008.459,5683.671,2008.452,5682.847,2008.441,5682.026Z" transform="translate(-1994.181 -5653.97)"/><path d="M2022.58,5204.318q-.007,6.228,0,12.455c0,4.049,0,8.057.007,12.107v-26.8l-.021,1.6A4.661,4.661,0,0,1,2022.58,5204.318Z" transform="translate(-2007.663 -5195.888)"/><path d="M2022.845,5835.354v-1.49c0,.318,0,.566-.008.762Z" transform="translate(-2007.923 -5798.937)"/><path d="M2008.473,5418.911c0-.088-.011-.175-.015-.262-.005-.105-.012-.209-.018-.316v1.127A5.033,5.033,0,0,0,2008.473,5418.911Z" transform="translate(-1994.181 -5402.306)"/><path class="d" d="M2023.02,5791.336v1.934C2023.02,5792.674,2023.021,5791.936,2023.02,5791.336Z" transform="translate(-2008.098 -5758.343)"/><path d="M2009.1,5250.327q0-6.226,0-12.454a4.751,4.751,0,0,0-.016-.641l0,.24-.639-.059v8.057c.007.105.013.21.018.316,0,.086.016.174.015.261a4.85,4.85,0,0,1-.033.549v10.866c0,.013,0,.023,0,.037.011.823.018,1.646,0,2.467v4.335l.642-.3.013,1.135c.008-.195.008-.445.008-.764v-1.935C2009.1,5258.385,2009.1,5254.377,2009.1,5250.327Z" transform="translate(-1994.181 -5229.443)"/><path d="M2008.758,5203.124a.73.73,0,0,1,.327.552l.021-1.6s-.262.008-.663.032v.83Q2008.6,5203.023,2008.758,5203.124Z" transform="translate(-1994.184 -5195.888)"/><path class="e" d="M1900.309,5211.548l4.919.454v-.919a5.161,5.161,0,0,0-3.568-.3c-.732.183-1.13.323-1.13.323Z" transform="translate(-1890.969 -5204.033)"/><path d="M2008.754,5221.2c-.1-.07-.209-.129-.315-.187v.921l.639.057,0-.24A.727.727,0,0,0,2008.754,5221.2Z" transform="translate(-1994.181 -5213.958)"/><path class="f" d="M2008.754,5221.2c-.1-.07-.209-.129-.315-.187v.921l.639.057,0-.24A.727.727,0,0,0,2008.754,5221.2Z" transform="translate(-1994.181 -5213.958)"/><path class="g" d="M1992.7,5864.647h0l.716.048v-.012C1993.183,5864.672,1992.944,5864.662,1992.7,5864.647Z" transform="translate(-1979.158 -5828.318)"/><path d="M2008.439,5851.31v.01l.664.044-.009-.729C2009.067,5851.287,2008.949,5851.333,2008.439,5851.31Z" transform="translate(-1994.181 -5814.946)"/><path class="h" d="M1993.421,5832.348l-.5.234-.218,1.234c.244.014.483.026.716.036Z" transform="translate(-1979.162 -5797.49)"/><path d="M2009.095,5826.829l-.013-1.134-.642.3v1.506C2008.95,5827.527,2009.068,5827.48,2009.095,5826.829Z" transform="translate(-1994.181 -5791.138)"/><path class="i" d="M2009.095,5826.829l-.013-1.134-.642.3v1.506C2008.95,5827.527,2009.068,5827.48,2009.095,5826.829Z" transform="translate(-1994.181 -5791.138)"/><path class="j" d="M1709.9,5066.165l-.663-.166v6.223a20.033,20.033,0,0,0-2.542.3c-.392.078-.735.155-1.025.229-.081.015-.163.029-.246.046a4.208,4.208,0,0,0-2.656,1.6,3.822,3.822,0,0,1-1.355,1.208,6.2,6.2,0,0,0-3.6,5.2,3.66,3.66,0,0,1-.927,2.2,6.582,6.582,0,0,0-1.2,7.625,2.867,2.867,0,0,1,.325,1.638,4.184,4.184,0,0,0,.036,1.131,6.616,6.616,0,0,0,4.409,5.537,4.719,4.719,0,0,1,1.979,1.369c1.36,1.611,3.9,1.9,6.081,2.02.244.013.483.026.716.036V5108l.663.165v-5.744l-.009-.728c.009-.2.009-.446.009-.764v-1.935c-.005-4.048-.007-8.058-.007-12.108q0-6.226,0-12.455a4.6,4.6,0,0,0-.017-.641l.021-1.6Zm-.778,32.38c-.141,1.459-.942,2.031-2.412,1.976a3.793,3.793,0,0,1-3.587-2.519,2.935,2.935,0,0,1-.1-.333.969.969,0,0,1,.661-1.313,1.143,1.143,0,0,1,1.486.779,4.384,4.384,0,0,0,.423,1.229c.3.475.619.6,1.051.407.4-.183.493-.51.3-1.037-.313-.862-.268-.986.538-1.469a2.81,2.81,0,0,0,.69-.528.858.858,0,0,0,.032-1.189.737.737,0,0,0-1.088-.14,2.217,2.217,0,0,1-2.373.2,2.255,2.255,0,0,0-3.076,1.241c-.134.274-.255.555-.41.816a.6.6,0,0,1-.892.255,4.736,4.736,0,0,1-2.551-4.606,3.663,3.663,0,0,0-.5-2.529,4.467,4.467,0,0,1,1.168-5.724,2.321,2.321,0,0,0,1.047-2.425,4.17,4.17,0,0,1,1.642-3.672c.288-.265.535-.191.681.172.265.661.515,1.33.742,2a1.063,1.063,0,0,1-.325,1.112,2.657,2.657,0,0,0-.775,1.8.76.76,0,0,0,.6.885c.4.1.658-.05.879-.52a1.641,1.641,0,0,1,2.368-1,2.264,2.264,0,0,0,1.118.071.867.867,0,0,0,.823-.865c.008-.409-.2-.656-.741-.767a3.691,3.691,0,0,1-2.367-1.581,3.2,3.2,0,0,1,2.051-5.069,2.378,2.378,0,0,1,2.929,1.608,4.361,4.361,0,0,1-.01,1.737c-.068.389-.307.5-.68.347a3.609,3.609,0,0,1-.83-.558c-.229-.179-.446-.375-.681-.546a.68.68,0,0,0-.852-.043.787.787,0,0,0-.354.91,2.665,2.665,0,0,0,1.377,1.615,6.051,6.051,0,0,0,1.224.451,1,1,0,0,1,.862,1.175,9.876,9.876,0,0,0,.031,1.124c.007.1.013.21.018.314,0,.088.016.176.015.263a4.958,4.958,0,0,1-.033.55c-.138,1.1-.7,1.127-1.663.952a4.291,4.291,0,0,0-3.951,1.471c-.185.186-.349.391-.54.57a1.485,1.485,0,0,1-2.338-.241,5.3,5.3,0,0,1-.345-.605c-.29-.559-.525-.695-.975-.555a.838.838,0,0,0-.594,1.1,1.4,1.4,0,0,1-.4,1.354,4.832,4.832,0,0,0-.348.39.747.747,0,0,0,.2,1.219.781.781,0,0,0,1.034-.087,1.623,1.623,0,0,1,2.348-.188,11.933,11.933,0,0,0,1.143.633.633.633,0,0,0,.914-.306c.177-.333.341-.674.5-1.018a3.4,3.4,0,0,1,2.9-2.082,1.712,1.712,0,0,1,2.073,1.828c.022.479,0,.962,0,1.443s.016.99,0,1.484c-.023.543-.268.724-.8.628-1.44-.257-1.579-.437-1.461-1.894.028-.348.081-.708-.261-.957a.816.816,0,0,0-1.324.43,3.964,3.964,0,0,0-.132.551,1.88,1.88,0,0,1-1.327,1.583,2.2,2.2,0,0,1-2.236-.472c-.23-.2-.423-.442-.662-.629a.82.82,0,0,0-1.143.084c-.285.278-.289.606-.019,1.025.134.208.272.415.385.633a1.532,1.532,0,0,1-.042,1.616.594.594,0,0,0,.078.855c.294.271.793.38,1.037.122,1.145-1.208,2.811-1.263,4.193-1.939a.913.913,0,0,1,.913.133,3.865,3.865,0,0,0,1.718.572c.746.093,1.109.412,1.131,1.162,0,.012,0,.023,0,.036.011.821.018,1.646,0,2.467C1709.222,5097.2,1709.188,5097.873,1709.124,5098.545Z" transform="translate(-1694.98 -5065.999)"/></g></svg>