<?xml version="1.0" encoding="UTF-8"?>
<svg width="178px" height="35px" viewBox="0 0 178 35" version="1.1" xmlns="http://www.w3.org/2000/svg" xmlns:xlink="http://www.w3.org/1999/xlink">
    <!-- Generator: Sketch 41.2 (35397) - http://www.bohemiancoding.com/sketch -->
    <title>Logo</title>
    <desc>Created with Sketch.</desc>
    <defs></defs>
    <g id="Symbols" stroke="none" stroke-width="1" fill="none" fill-rule="evenodd">
        <g id="[-HEADER-]" transform="translate(0.000000, -2.000000)">
            <g id="Logo">
                <g transform="translate(0.000000, 2.000000)">
                    <g id="Text" transform="translate(77.268293, 0.017899)" fill="#FFFFFF">
                        <path d="M19.315925,19.3637448 C19.2926229,18.315152 18.5236548,17.0568405 16.9624165,17.0568405 C15.4244803,17.0568405 14.6322101,18.2685478 14.585606,19.3637448 L19.315925,19.3637448 Z M22.7413283,21.4842326 L14.5623039,21.4842326 C14.7254184,23.1386792 15.9837298,23.8843452 17.498364,23.8843452 C18.9896961,23.8843452 20.2946116,23.2318874 20.9470694,22.7891482 L22.4150994,24.7232195 C22.0422664,25.0028443 20.5276323,26.5873846 16.9624165,26.5873846 C13.4205028,26.5873846 10.8339737,24.3969906 10.8339737,20.5987542 C10.8339737,16.8005178 13.6302214,14.6334259 17.0323227,14.6334259 C20.434424,14.6334259 22.7879325,16.8937261 22.7879325,20.2492233 C22.7879325,20.8081351 22.7413283,21.4842326 22.7413283,21.4842326 L22.7413283,21.4842326 Z" id="Fill-2"></path>
                        <path d="M30.8319062,21.2745816 L28.9910432,21.3910919 C27.849242,21.4373583 27.1734822,21.9270394 27.1734822,22.788878 C27.1734822,23.6743565 27.8958462,24.2103039 28.921137,24.2103039 C29.9231257,24.2103039 30.5988856,23.5581839 30.8319062,23.1620488 L30.8319062,21.2745816 Z M34.5369343,26.3311295 L30.9717186,26.3311295 L30.9018124,25.1194221 C30.412469,25.6087655 29.4803865,26.5871144 27.6162214,26.5871144 C25.5889418,26.5871144 23.445152,25.4919174 23.445152,22.9286904 C23.445152,20.3658011 25.7986604,19.5036248 27.9191482,19.4100788 L30.8086041,19.2939062 L30.8086041,19.0375835 C30.8086041,17.8255385 29.9464278,17.1967205 28.4550957,17.1967205 C26.9870657,17.1967205 25.5190356,17.8488405 24.9364841,18.2220113 L23.9577974,15.7982589 C24.9364841,15.3092533 26.730743,14.6334934 28.8745328,14.6334934 C31.0183227,14.6334934 32.2533321,15.1224991 33.1621126,15.9617111 C34.047591,16.8005854 34.5369343,17.9187467 34.5369343,19.8531557 L34.5369343,26.3311295 Z" id="Fill-4"></path>
                        <path d="M47.8467355,26.3310281 L44.1184053,26.3310281 L44.1184053,20.3423977 C44.1184053,18.8277636 43.8853846,17.6859625 42.3474484,17.6859625 C40.739606,17.6859625 40.2968668,18.990878 40.2968668,20.6453246 L40.2968668,26.3310281 L36.5685366,26.3310281 L36.5685366,14.842773 L40.2968668,14.842773 L40.2735647,16.4975572 L40.3201689,16.4975572 C40.9493246,15.4722664 41.9979174,14.6333921 43.652364,14.6333921 C46.9845591,14.6333921 47.8467355,16.777182 47.8467355,19.5501276 L47.8467355,26.3310281 Z" id="Fill-6"></path>
                        <polygon id="Fill-8" points="76.5545066 10.252469 71.8940938 26.3308931 68.0958574 26.3308931 65.0432871 15.3093546 61.9907167 26.3308931 58.1924803 26.3308931 53.5320675 10.252469 57.4701163 10.252469 60.266364 21.0879287 63.1558199 10.252469 66.9307542 10.252469 69.8435122 21.0879287 72.6164578 10.252469"></polygon>
                        <path d="M83.3679287,21.2745816 L81.5270657,21.3910919 C80.3852645,21.4373583 79.7095047,21.9270394 79.7095047,22.788878 C79.7095047,23.6743565 80.4318687,24.2103039 81.4571595,24.2103039 C82.4591482,24.2103039 83.1349081,23.5581839 83.3679287,23.1620488 L83.3679287,21.2745816 Z M87.0729568,26.3311295 L83.5077411,26.3311295 L83.4378349,25.1194221 C82.9484916,25.6087655 82.016409,26.5871144 80.1522439,26.5871144 C78.1249644,26.5871144 75.9811745,25.4919174 75.9811745,22.9286904 C75.9811745,20.3658011 78.3346829,19.5036248 80.4551707,19.4100788 L83.3446266,19.2939062 L83.3446266,19.0375835 C83.3446266,17.8255385 82.4824503,17.1967205 80.9911182,17.1967205 C79.5230882,17.1967205 78.0550582,17.8488405 77.4725066,18.2220113 L76.4938199,15.7982589 C77.4725066,15.3092533 79.2667655,14.6334934 81.4105553,14.6334934 C83.5543452,14.6334934 84.7893546,15.1224991 85.6981351,15.9617111 C86.5836135,16.8005854 87.0729568,17.9187467 87.0729568,19.8531557 L87.0729568,26.3311295 Z" id="Fill-10"></path>
                        <path d="M100.18469,14.8429081 L95.0582364,27.4263602 C94.2193621,29.4769418 93.2872795,30.7352533 91.3299062,30.7352533 C89.3725328,30.7352533 88.1375235,30.175666 88.1375235,30.175666 L88.8831895,27.4263602 C88.8831895,27.4263602 89.6987617,27.7289493 90.2580113,27.7289493 C90.6774484,27.7289493 91.0735835,27.7289493 91.3765103,26.9832833 L91.7959475,25.9812946 L87.252045,14.8429081 L91.1434897,14.8429081 L93.7533208,22.2296623 L96.3398499,14.8429081 L100.18469,14.8429081 Z" id="Fill-12"></path>
                        <polygon id="Fill-14" points="4.7444015 1.35722702 3.30169981 1.35722702 3.30169981 5.91261163 1.98834146 5.91261163 1.98834146 1.35722702 0.545639775 1.35722702 0.545639775 0.319778612 4.7444015 0.319778612"></polygon>
                        <path d="M9.17601501,5.91267917 L7.87076173,5.91267917 L7.87076173,3.81312946 C7.87076173,3.32716323 7.8059212,2.90569981 7.2628818,2.90569981 C6.7198424,2.90569981 6.54963602,3.35924578 6.54963602,3.95091557 L6.54963602,5.91267917 L5.25282552,5.91267917 L5.25282552,0.319508443 L6.54963602,0.319508443 L6.54963602,1.64907692 C6.54963602,2.05433021 6.54153096,2.49200375 6.54153096,2.49200375 C6.7441576,2.13538086 7.12509568,1.8435985 7.71676548,1.8435985 C8.87612758,1.8435985 9.17601501,2.58115947 9.17601501,3.55410507 L9.17601501,5.91267917 Z" id="Fill-17"></path>
                        <path d="M12.7712871,3.48902814 C12.763182,3.12430019 12.4957148,2.68662664 11.9526754,2.68662664 C11.4177411,2.68662664 11.1418311,3.10809006 11.125621,3.48902814 L12.7712871,3.48902814 Z M13.9627317,4.22692683 L11.1178537,4.22692683 C11.1742514,4.80238649 11.611925,5.06141088 12.1387542,5.06141088 C12.6578161,5.06141088 13.1116998,4.83446904 13.3386417,4.6804728 L13.8492608,5.35353096 C13.7195797,5.45079174 13.1927505,6.0015985 11.9526754,6.0015985 C10.7203677,6.0015985 9.82070544,5.24006004 9.82070544,3.91859662 C9.82070544,2.59747092 10.793651,1.84369981 11.9766529,1.84369981 C13.1603302,1.84369981 13.9789418,2.62989118 13.9789418,3.79702064 C13.9789418,3.99154221 13.9627317,4.22692683 13.9627317,4.22692683 L13.9627317,4.22692683 Z" id="Fill-20"></path>
                        <polygon id="Fill-1" points="10.338045 26.3310281 1.01721951 26.3310281 1.01721951 10.2526041 4.76885178 10.2526041 4.76885178 23.2085516 10.338045 23.2085516"></polygon>
                    </g>
                    <g id="Sign" transform="translate(0.000000, 1.773996)">
                        <path d="M65.6922326,10.0704765 L56.6956098,1.07351595 C56.0745591,0.452803002 55.0675047,0.452803002 54.446454,1.07351595 L33.079137,22.4411707 L43.2003377,32.5623715 C43.2932083,32.655242 43.3965478,32.7298762 43.5042777,32.7947167 C44.1158724,33.164848 44.9213133,33.0905516 45.4494934,32.5623715 L65.6922326,12.3196323 C66.3132833,11.6982439 66.3132833,10.6915272 65.6922326,10.0704765" id="Fill-22" fill="#F0A900"></path>
                        <path d="M31.954424,1.07365103 L21.8332233,11.1951895 L11.7116848,1.07365103 C11.0906341,0.452600375 10.0835797,0.452600375 9.46252908,1.07365103 L0.465906191,10.0706116 C-0.155482176,10.6913246 -0.155482176,11.6987167 0.465906191,12.3197674 L10.5871069,22.4409681 L20.7086454,32.5621689 C21.3296961,33.1835572 22.3367505,33.1835572 22.9578011,32.5621689 L33.0790019,22.4409681 L44.3247805,11.1951895 L34.2035797,1.07365103 C33.5825291,0.452600375 32.5754747,0.452600375 31.954424,1.07365103" id="Fill-26" fill="#FFFFFF"></path>
                        <path d="M44.3249156,11.1950882 L33.079137,22.4412045 L43.2003377,32.5624053 C43.2932083,32.6552758 43.3965478,32.7299099 43.5042777,32.7947505 C38.13197,26.5464203 38.4024765,17.1175272 44.3249156,11.1950882" id="Fill-24" fill="#324458" opacity="0.4"></path>
                    </g>
                </g>
            </g>
        </g>
    </g>
</svg>